<svg width="48" height="48" viewBox="0 0 48 48" fill="none" xmlns="http://www.w3.org/2000/svg">
<g clip-path="url(#clip0_33_95)">
<path d="M8 12.286V37.934L18.13 33.594L30.13 39.594L40 35.36V9.71403L42.606 8.59803C42.7582 8.53279 42.9242 8.50636 43.0891 8.52111C43.254 8.53586 43.4126 8.59132 43.5508 8.68252C43.689 8.77371 43.8024 8.89779 43.8808 9.04362C43.9592 9.18945 44.0001 9.35246 44 9.51803V38L30 44L18 38L5.394 43.402C5.24183 43.4673 5.07584 43.4937 4.91093 43.4789C4.74602 43.4642 4.58736 43.4087 4.44917 43.3175C4.31099 43.2263 4.19761 43.1023 4.11921 42.9564C4.04082 42.8106 3.99985 42.6476 4 42.482V14L8 12.286ZM32.486 22.486L24 30.97L15.514 22.486C13.836 20.8077 12.6933 18.6695 12.2304 16.3418C11.7676 14.0141 12.0053 11.6014 12.9136 9.40879C13.822 7.2162 15.36 5.34217 17.3334 4.02369C19.3067 2.7052 21.6267 2.00146 24 2.00146C26.3733 2.00146 28.6933 2.7052 30.6666 4.02369C32.64 5.34217 34.178 7.2162 35.0864 9.40879C35.9947 11.6014 36.2324 14.0141 35.7696 16.3418C35.3067 18.6695 34.164 20.8077 32.486 22.486ZM24 25.314L29.656 19.656C30.7751 18.5373 31.5372 17.1118 31.8461 15.5599C32.155 14.008 31.9967 12.3994 31.3913 10.9374C30.7858 9.47546 29.7605 8.22589 28.4448 7.34673C27.1292 6.46757 25.5824 5.99832 24 5.99832C22.4176 5.99832 20.8708 6.46757 19.5552 7.34673C18.2395 8.22589 17.2142 9.47546 16.6087 10.9374C16.0033 12.3994 15.845 14.008 16.1539 15.5599C16.4628 17.1118 17.2249 18.5373 18.344 19.656L24 25.314Z" fill="white"/>
</g>
<defs>
<clipPath id="clip0_33_95">
<rect width="48" height="48" fill="white"/>
</clipPath>
</defs>
</svg>
