<svg width="48" height="48" viewBox="0 0 48 48" fill="none" xmlns="http://www.w3.org/2000/svg">
<g clip-path="url(#clip0_11_1095)">
<path d="M9.74607 6H38.2541C38.5696 5.99996 38.8808 6.07459 39.162 6.2178C39.4432 6.36102 39.6865 6.56874 39.8721 6.824L47.5181 17.336C47.654 17.523 47.7209 17.7514 47.7074 17.9822C47.6939 18.2131 47.6009 18.4321 47.4441 18.602L24.7341 43.204C24.5541 43.3985 24.3044 43.5136 24.0397 43.5241C23.7749 43.5346 23.5168 43.4396 23.3221 43.26C23.3081 43.248 15.7221 35.03 0.556067 18.602C0.399274 18.4321 0.306212 18.2131 0.29272 17.9822C0.279228 17.7514 0.34614 17.523 0.482067 17.336L8.12807 6.824C8.31363 6.56874 8.55696 6.36102 8.83817 6.2178C9.11938 6.07459 9.43049 5.99996 9.74607 6ZM10.7661 10L5.16607 17.7L24.0001 38.1L42.8341 17.7L37.2341 10H10.7661Z" fill="white"/>
</g>
<defs>
<clipPath id="clip0_11_1095">
<rect width="48" height="48" fill="white"/>
</clipPath>
</defs>
</svg>
